<?xml version="1.0" standalone="no"?>
<!DOCTYPE svg PUBLIC "-//W3C//DTD SVG 20010904//EN"
 "http://www.w3.org/TR/2001/REC-SVG-20010904/DTD/svg10.dtd">
<svg version="1.0" xmlns="http://www.w3.org/2000/svg"
 width="620.000000pt" height="620.000000pt" viewBox="0 0 620.000000 620.000000"
 preserveAspectRatio="xMidYMid meet">
<metadata>
Created by potrace 1.11, written by Peter Selinger 2001-2013
</metadata>
<g transform="translate(0.000000,620.000000) scale(0.100000,-0.100000)"
fill="#000000" stroke="none">
<path d="M1063 6168 c-12 -6 -28 -24 -37 -41 -15 -32 -15 -97 -2 -2155 2 -315
1 -574 -3 -576 -3 -2 -40 -7 -81 -11 -41 -4 -77 -9 -80 -10 -3 -2 -28 -6 -55
-9 -28 -4 -59 -8 -70 -10 -11 -2 -47 -7 -80 -10 -33 -4 -67 -9 -75 -11 -8 -2
-40 -6 -71 -10 -31 -3 -65 -7 -75 -9 -11 -2 -41 -7 -69 -10 -27 -4 -63 -9 -80
-11 -16 -3 -46 -7 -65 -9 -95 -12 -130 -19 -130 -25 0 -3 252 -5 560 -3 l560
2 -6 1053 c-3 578 -5 1059 -5 1067 1 17 1 14 0 275 -1 110 -1 206 0 213 1 8
27 -7 64 -36 34 -27 132 -104 217 -171 85 -67 162 -127 170 -134 8 -7 35 -28
60 -47 25 -19 47 -37 50 -40 3 -3 43 -34 90 -70 47 -35 87 -67 90 -70 3 -3 36
-29 74 -59 37 -29 75 -59 85 -67 9 -7 95 -75 191 -150 96 -75 191 -149 210
-165 147 -119 330 -259 338 -259 7 0 310 236 497 388 6 4 53 42 105 82 52 41
102 83 111 92 9 10 21 18 27 18 6 0 12 3 14 8 2 4 53 47 113 95 61 48 117 93
125 100 8 7 35 28 60 47 25 19 54 42 65 52 31 25 422 336 499 396 158 124 175
142 181 188 6 46 -9 79 -47 102 -24 14 -32 15 -65 3 -21 -8 -40 -17 -43 -20
-3 -4 -70 -58 -150 -121 -80 -63 -154 -122 -165 -131 -36 -30 -128 -103 -270
-214 -77 -60 -149 -117 -160 -127 -11 -9 -105 -84 -210 -167 -104 -82 -194
-154 -200 -158 -5 -5 -41 -33 -80 -63 -38 -30 -72 -57 -75 -60 -3 -3 -36 -30
-75 -60 -38 -30 -77 -60 -85 -67 -8 -6 -43 -34 -76 -62 -104 -86 -81 -93 -320
95 -115 90 -216 170 -224 177 -8 6 -35 28 -60 47 -25 19 -47 37 -50 40 -3 3
-39 31 -80 62 -42 32 -84 65 -95 75 -11 10 -45 37 -75 60 -30 22 -66 50 -80
62 -52 42 -148 117 -174 136 -16 11 -33 25 -40 30 -10 9 -144 116 -171 137 -8
7 -45 35 -110 86 -67 52 -224 176 -236 186 -75 62 -113 75 -156 54z"/>
<path d="M4969 5862 c-14 -9 -128 -98 -253 -197 -125 -99 -241 -189 -256 -200
-61 -44 -395 -310 -398 -317 -2 -4 -8 -8 -13 -8 -8 0 -42 -26 -75 -58 -11 -10
9 -43 111 -185 69 -94 128 -176 133 -182 4 -5 25 -35 47 -65 22 -30 43 -59 47
-65 5 -5 48 -66 97 -135 49 -69 105 -146 125 -172 20 -26 36 -52 36 -58 0 -5
3 -10 8 -10 4 0 18 -17 32 -37 28 -42 294 -412 307 -428 5 -5 21 -28 36 -50
15 -22 27 -33 28 -25 0 8 3 427 5 930 3 503 6 997 7 1098 1 100 2 182 2 182 0
0 -12 -8 -26 -18z"/>
<path d="M2003 4157 c2 -15 0 -30 -4 -33 -4 -2 -4 -17 0 -32 7 -26 5 -85 -3
-108 -10 -28 13 -36 110 -37 l99 -2 1 -340 1 -340 114 0 113 0 2 335 c1 184 2
338 3 343 0 4 46 7 101 7 l100 0 1 83 c1 84 -1 140 -5 145 -2 1 -146 3 -320 5
l-318 2 5 -28z"/>
<path d="M2860 4182 c-68 -1 -129 -7 -133 -11 -11 -11 -12 -155 -2 -171 3 -5
3 -10 -2 -10 -4 0 -8 -25 -8 -55 0 -30 2 -55 5 -55 3 0 4 -21 3 -47 -4 -74 -5
-177 -3 -188 1 -5 2 -14 1 -20 -5 -23 -4 -253 1 -261 3 -5 2 -18 -2 -28 -8
-23 -2 -64 11 -72 10 -6 581 -6 586 0 3 3 6 796 3 898 0 15 -18 17 -167 20
-93 2 -224 2 -293 0z m248 -462 l-3 -225 -82 -1 c-52 0 -84 4 -84 10 -7 43 -4
423 2 432 5 6 43 10 89 10 l80 -1 -2 -225z"/>
<path d="M3486 4172 c-4 -7 -7 -152 -5 -282 0 -15 0 -288 0 -325 -1 -179 0
-300 3 -303 5 -4 198 -4 203 1 2 2 5 62 6 133 l2 129 190 0 190 1 2 153 c1 84
4 159 7 167 3 8 2 14 -2 14 -4 0 -6 19 -4 42 2 41 2 93 0 185 -1 24 1 46 4 49
3 3 4 14 1 25 -5 18 -17 19 -299 19 -161 0 -295 -4 -298 -8z m375 -232 c7 -34
2 -190 -6 -191 -16 -1 -139 -1 -152 0 -9 1 -12 30 -11 99 l0 98 84 0 c46 0 84
-3 85 -6z"/>
<path d="M4981 3456 l-2 -196 256 0 c685 -2 939 0 933 5 -2 3 -24 7 -49 10
-24 3 -62 8 -84 11 -22 3 -53 7 -70 9 -16 1 -68 8 -115 15 -47 6 -98 13 -115
15 -16 2 -66 9 -110 16 -44 6 -91 13 -105 14 -115 13 -146 17 -150 20 -3 2
-32 6 -65 10 -33 3 -69 8 -80 10 -11 2 -29 4 -40 4 -12 1 -34 21 -55 52 -19
28 -40 56 -45 62 -6 7 -28 37 -49 67 -22 30 -43 59 -47 63 -3 5 -7 -79 -8
-187z"/>
<path d="M2 2668 l3 -313 215 -1 215 -1 0 -91 1 -92 -31 -1 c-16 0 -113 -2
-215 -2 l-185 -2 -3 -112 -3 -113 340 0 339 0 0 315 c0 195 -3 317 -9 321 -6
3 -102 6 -215 6 -232 -1 -204 -13 -208 93 -3 84 -15 80 223 79 l211 -1 0 113
0 114 -340 0 -340 0 2 -312z"/>
<path d="M886 2971 c-5 -8 -8 -134 -5 -206 1 -11 1 -31 0 -45 -1 -14 -1 -34
-1 -45 1 -22 1 -207 1 -240 0 -11 0 -65 0 -120 0 -55 0 -109 0 -120 0 -28 0
-217 0 -237 0 -17 22 -18 319 -18 l318 0 -2 75 c0 41 3 75 7 75 5 0 6 4 3 8
-3 5 -6 26 -7 48 l-3 40 -195 -1 -196 0 -2 76 -1 76 81 0 c45 0 89 1 97 2 13
1 15 20 14 114 0 61 -2 117 -2 122 -1 7 -38 11 -94 10 l-93 0 0 75 0 75 192 0
c105 0 195 3 198 7 4 4 6 51 5 105 -1 54 -1 106 -1 116 0 16 -22 17 -314 17
-176 0 -316 -4 -319 -9z"/>
<path d="M1684 2968 c-6 -9 -6 -64 -2 -208 0 -8 0 -26 -1 -40 -1 -14 -1 -34
-1 -45 0 -11 1 -65 1 -120 0 -55 0 -107 0 -115 0 -8 0 -49 -1 -90 -1 -41 -1
-79 0 -85 1 -5 1 -28 1 -50 -1 -33 -1 -187 0 -257 0 -17 23 -18 339 -18 l339
0 -2 145 c-1 80 0 145 3 145 11 0 -3 80 -14 81 -6 1 -59 2 -118 3 l-108 1 -1
-42 c-1 -24 -2 -48 -3 -55 -1 -9 -28 -12 -96 -12 l-95 0 -2 234 c-2 129 -1
244 2 255 4 18 12 20 97 19 l93 -1 5 -53 5 -54 108 -1 c59 0 112 2 118 6 9 5
12 78 10 302 l-1 67 -334 0 c-243 0 -337 -3 -342 -12z"/>
<path d="M2527 2973 c-4 -3 -7 -237 -7 -520 l0 -513 360 0 360 0 0 68 c1 82 1
788 0 895 l0 77 -124 0 c-90 0 -125 -3 -128 -12 -2 -7 -4 -181 -3 -385 0 -247
-3 -373 -10 -374 -5 -1 -53 -2 -107 -3 l-96 -1 0 385 0 385 -119 2 c-66 2
-123 0 -126 -4z"/>
<path d="M3357 2960 c-3 -11 -2 -22 3 -25 4 -2 4 -23 0 -44 -5 -27 -3 -42 4
-45 6 -2 7 -5 1 -5 -10 -1 -10 -107 0 -148 3 -13 1 -23 -3 -23 -5 0 -6 -18 -2
-40 4 -22 5 -42 2 -44 -3 -3 -4 -43 -3 -88 3 -95 3 -87 -1 -156 -2 -28 -1 -52
2 -52 3 0 5 -22 5 -50 0 -27 -3 -50 -6 -50 -4 0 -3 -18 1 -40 4 -22 5 -42 2
-45 -10 -10 -2 -149 9 -155 5 -4 65 -7 132 -6 l122 1 2 140 c0 77 2 146 2 153
1 9 13 12 39 10 l37 -3 76 -150 76 -150 151 -3 152 -3 -31 58 c-17 31 -49 88
-70 126 -21 38 -39 72 -39 75 0 4 -9 18 -20 32 -11 14 -20 28 -20 33 0 4 31 7
68 7 l69 0 0 355 0 355 -377 0 c-369 0 -378 0 -383 -20z m471 -229 c21 -1 22
-4 22 -116 l0 -115 -35 -1 c-44 -1 -93 -1 -147 0 l-43 1 1 108 c0 60 3 113 6
118 5 8 62 9 196 5z"/>
<path d="M4279 2798 c-1 -101 -1 -186 0 -190 3 -27 3 -431 -1 -467 0 -3 0 -50
1 -103 l1 -98 119 0 119 0 4 39 c2 21 0 53 -3 70 -4 17 -4 33 0 35 4 3 5 19 4
38 -4 67 -4 85 -3 210 1 69 -1 131 -4 137 -4 5 -3 12 2 14 4 3 6 23 5 44 -5
60 -5 115 0 120 3 2 1 20 -3 39 -4 19 -5 36 -1 38 3 2 5 22 4 43 -4 42 -5 116
-2 129 1 5 1 26 0 47 l-1 37 -120 0 -120 0 -1 -182z"/>
<path d="M4643 2969 c-8 -8 -8 -20 -3 -34 5 -13 6 -25 4 -28 -6 -6 -7 -141 -1
-172 4 -18 12 -19 118 -20 l113 0 1 -385 0 -385 128 -3 127 -3 0 390 0 389
110 -1 c60 0 112 2 115 5 5 5 10 162 5 183 -5 22 1 45 11 45 5 0 7 -4 4 -10
-3 -5 -1 -10 4 -10 6 0 11 -4 11 -10 0 -10 25 -65 106 -235 21 -44 37 -83 36
-87 -1 -5 3 -8 8 -8 6 0 10 -4 10 -10 0 -9 33 -83 87 -199 13 -27 16 -73 17
-237 l1 -205 125 3 125 3 1 205 1 205 36 78 c20 42 53 110 72 151 105 226 136
293 145 307 5 9 16 33 24 53 l15 36 -130 0 -130 0 -20 -47 c-11 -27 -24 -57
-29 -68 -4 -11 -15 -36 -23 -55 -8 -19 -25 -60 -38 -90 -12 -30 -26 -59 -31
-64 -4 -6 -8 -18 -8 -28 0 -41 -18 -10 -78 135 -77 184 -84 200 -97 209 -17
13 -959 10 -972 -3z"/>
<path d="M122 1615 c2 -2 24 -6 49 -9 24 -2 44 -5 44 -6 0 -1 11 -3 25 -4 36
-4 140 -17 176 -22 42 -6 101 -14 149 -18 22 -3 54 -7 70 -10 17 -3 53 -7 80
-11 28 -3 66 -7 85 -10 19 -3 64 -8 100 -11 36 -3 68 -8 71 -10 3 -2 35 -6 69
-9 35 -4 70 -9 77 -13 7 -4 45 -73 84 -152 108 -218 207 -358 374 -526 263
-266 667 -512 1080 -660 61 -22 201 -68 245 -79 8 -3 33 -9 55 -15 22 -6 45
-12 50 -14 57 -17 87 -16 156 4 41 12 79 23 84 25 6 1 17 4 25 7 8 3 76 25
150 48 74 24 140 46 145 50 6 4 21 11 35 15 14 4 53 20 88 36 35 16 66 29 68
29 5 0 200 97 244 122 71 39 166 97 189 115 9 7 35 25 58 40 154 103 493 421
493 462 0 5 4 11 8 13 23 9 192 273 192 299 0 6 7 17 15 26 8 8 13 19 10 24
-4 5 -1 9 4 9 6 0 11 7 11 15 0 9 9 33 20 55 22 44 49 55 155 65 58 5 89 9
165 20 19 2 58 7 85 10 28 3 68 8 90 11 22 3 51 7 65 9 38 6 132 17 160 20 22
2 105 12 168 20 12 2 50 6 85 10 171 19 94 23 -468 24 -335 0 -615 -3 -622 -7
-7 -4 -25 -40 -41 -78 -53 -128 -136 -285 -153 -292 -5 -2 -9 -8 -9 -14 0 -36
-236 -298 -365 -404 -244 -201 -519 -355 -870 -487 -111 -42 -334 -107 -367
-107 -33 0 -204 47 -313 86 -38 14 -74 27 -80 28 -5 1 -28 10 -50 20 -22 10
-47 19 -55 21 -8 2 -45 17 -82 34 -38 17 -70 32 -72 32 -3 1 -38 19 -78 40
-40 22 -85 44 -100 50 -16 6 -28 15 -28 20 0 5 -5 9 -12 9 -13 0 -211 124
-233 146 -7 8 -18 14 -23 14 -6 0 -12 4 -14 8 -1 4 -32 30 -67 57 -36 27 -108
92 -161 144 -189 187 -306 360 -403 596 l-33 80 -578 2 c-318 1 -577 0 -574
-2z"/>
<path d="M2719 1569 c-1 -79 -1 -118 1 -126 1 -5 2 -12 0 -18 -4 -23 -5 -105
0 -105 3 0 5 -30 5 -67 l0 -68 55 -1 55 -2 0 77 c-1 90 0 92 26 83 13 -5 32
-34 51 -78 17 -38 36 -72 42 -76 6 -4 100 -8 209 -8 l197 0 0 49 c0 28 -5 53
-12 57 -6 4 -43 6 -81 5 l-70 -2 39 53 c21 29 57 78 80 108 37 48 63 120 44
120 -4 0 -5 11 -2 25 l4 25 -139 0 -140 0 -1 -58 0 -57 74 1 c41 0 74 -3 74
-8 0 -4 -29 -46 -64 -92 -79 -103 -82 -109 -85 -166 -3 -54 -5 -56 -18 -27 -6
12 -25 51 -43 86 -53 104 -53 104 1 212 27 53 49 99 49 102 0 9 -102 8 -117
-1 -6 -4 -26 -39 -45 -77 -24 -52 -38 -70 -53 -70 -18 0 -20 7 -20 75 l-1 75
-57 1 -57 2 -1 -49z"/>
</g>
</svg>
