<svg width="33" height="34" fill="none" xmlns="http://www.w3.org/2000/svg"><path d="M32.942 3.94c0-.956-.367-1.764-1.03-2.5-.735-.662-1.543-1.03-2.5-1.03H3.53C2.5.41 1.69.779 1.03 1.44.293 2.176 0 2.984 0 3.94v25.883c0 1.03.294 1.839 1.03 2.5.661.736 1.47 1.03 2.5 1.03h14.485V20.338H13.53v-5h4.485V11.66c0-2.059.515-3.603 1.691-4.78 1.177-1.176 2.721-1.764 4.707-1.764 1.47 0 2.794.073 3.823.22V9.75H25.59c-.956 0-1.618.22-1.985.662-.294.441-.441 1.03-.441 1.765v3.162h5.073l-.662 5h-4.412v13.015h6.25c.957 0 1.765-.294 2.5-1.03.663-.661 1.03-1.47 1.03-2.5V3.94z" fill="#fff"/></svg>