<svg width="18" height="16" fill="none" xmlns="http://www.w3.org/2000/svg"><path d="M12.257 8.508c-.032.04-.032.082-.048.136-.016.178.145.341.355.355.21.014.404-.123.42-.3 0-.041 0-.082.016-.15v-.15c0-.396-.08-.778-.226-1.147-.194-.478-.533-.9-.937-1.256a4.31 4.31 0 0 0-1.809-.887A5.03 5.03 0 0 0 9.011 5c-.113 0-.226 0-.356.014l-.339.04c-.21.028-.355.205-.307.37.033.177.243.3.436.258.097-.013.178-.027.275-.027h.048c.081 0 .162-.014.243-.014.888 0 1.712.3 2.293.806.582.491.937 1.16.953 1.91v.151z" fill="#fff"/><path d="M15.059 8.583c-.02.208.173.4.422.416.25.016.48-.144.5-.352C16 8.472 16 8.296 16 8.12c0-.351-.038-.687-.096-1.023-.25-1.278-.999-2.428-2.055-3.307-1.21-1.007-2.824-1.662-4.61-1.774C9.047 2 8.836 2 8.644 2c-.212 0-.423 0-.634.016-.211.016-.423.032-.634.064-.25.032-.423.24-.365.431.039.208.288.352.519.304l.384-.048c.057 0 .115-.016.173-.016.192-.016.384-.016.557-.016.653 0 1.267.08 1.863.224 1.037.255 1.959.719 2.708 1.342a5.534 5.534 0 0 1 1.44 1.806 4.62 4.62 0 0 1 .462 1.981v.16a1.103 1.103 0 0 0-.058.335z" fill="#fff"/><path d="M15.348 2.35C13.691.89 11.424 0 8.912 0c-.262 0-.524.015-.785.03a6.832 6.832 0 0 0-.785.093c-.227.03-.384.23-.332.414.035.2.262.338.471.292.122-.015.227-.03.349-.046.122-.015.244-.03.366-.03.245-.016.471-.031.716-.031 2.267 0 4.326.814 5.826 2.119 1.483 1.305 2.407 3.117 2.407 5.129v.338c0 .092-.017.184-.017.292-.018.2.157.384.384.399.226.015.436-.138.453-.338.018-.23.035-.46.035-.676 0-2.196-1.012-4.192-2.652-5.635zM17.577 12.205l-3.136-1.472c-1.046-.495-1.081-.17-2.18.852-.265.248-.762.899-1.346.775-1.223-.263-3.509-1.828-4.253-2.54-.354-.341-1.878-1.968-1.896-2.495-.035-.805 1.985-1.208 1.33-2.742l-1.4-2.742C3.383-.792-.285 3.421.017 5.39c.78 4.849 10.507 12.687 15.929 10.1 1.205-.588 2.835-2.649 1.63-3.284z" fill="#fff"/></svg>