<svg width="26" height="35" fill="none" xmlns="http://www.w3.org/2000/svg"><path d="M6.172 14.456l-.448.222h0v.001l.003.005.01.02.04.08a342.366 342.366 0 0 0 2.437 4.82c1.326 2.569 2.865 5.448 3.628 6.491.876 1.197 2.045 1.349 2.945 1.203a4.428 4.428 0 0 0 1.226-.398l7.117 5.673c-1.024.586-2.134 1.028-3.049 1.337a21.812 21.812 0 0 1-1.735.507l-.101.023-.014.004c-3.028.406-5.954-1.446-8.473-3.965-2.43-2.43-4.366-5.367-5.512-7.104l-.105-.16C1.966 19.922.598 13.912.501 7.02.478 5.385.904 4.185 1.53 3.295c.632-.896 1.49-1.508 2.37-1.927a9.37 9.37 0 0 1 2.45-.75c.234-.04.44-.066.61-.083l.27 9.3c-.63.347-1.071.786-1.363 1.272a3.465 3.465 0 0 0-.477 1.66 4.759 4.759 0 0 0 .314 1.868l.004.01.002.004v.001h0l.461-.194zm0 0l-.46.195.006.013.006.013.448-.22z" stroke="#8A8A8A"/><path d="M10.947 7.962h0c-.136.119-.506.319-.887.444-.122.04-.227.066-.312.08a28.627 28.627 0 0 1-.074-1.164c-.039-.84-.07-1.932-.097-3.015a394.73 394.73 0 0 1-.07-3.793c.235.03.583.112 1.037.328.523.249.737.455.817.557a.44.44 0 0 1 .036.053l.1 5.976-.066.069a7.489 7.489 0 0 1-.484.465zm-1.376.535s.006 0 .016.003c-.012-.001-.016-.002-.016-.003zM25.132 28.738l.001.002v-.001h-.001zm-.028-.022l.034.028.007.007a1.522 1.522 0 0 1 .217.277c.116.191.168.382.12.557a50.443 50.443 0 0 1-.467 1.56l-7.125-5.846 1.463-.798c.03 0 .07.004.12.013.154.027.413.104.756.328.37.243 1.586 1.207 2.74 2.138a354.804 354.804 0 0 1 2.001 1.627l.134.109z" stroke="#8A8A8A"/></svg>