<svg width="33" height="34" fill="none" xmlns="http://www.w3.org/2000/svg"><path d="M16.471 8.426c1.47 0 2.868.44 4.191 1.176a7.8 7.8 0 0 1 3.089 3.089c.735 1.323 1.176 2.72 1.176 4.19 0 1.545-.44 2.942-1.176 4.266a7.799 7.799 0 0 1-3.089 3.088 8.504 8.504 0 0 1-4.19 1.103 8.576 8.576 0 0 1-4.266-1.103 7.799 7.799 0 0 1-3.088-3.088 8.575 8.575 0 0 1-1.103-4.265c0-1.47.368-2.868 1.103-4.191a7.8 7.8 0 0 1 3.088-3.089c1.324-.735 2.721-1.176 4.265-1.176zm0 13.97c1.47 0 2.794-.514 3.897-1.617 1.03-1.03 1.618-2.353 1.618-3.897 0-1.47-.588-2.794-1.618-3.897-1.103-1.03-2.426-1.618-3.897-1.618-1.544 0-2.868.588-3.897 1.618-1.103 1.103-1.618 2.426-1.618 3.897 0 1.544.515 2.868 1.618 3.897 1.03 1.103 2.353 1.618 3.897 1.618zm10.81-14.338c0-.515-.221-.956-.589-1.397-.441-.368-.882-.588-1.397-.588-.588 0-1.03.22-1.397.588-.441.441-.588.882-.588 1.397 0 .588.147 1.03.588 1.397.367.441.809.588 1.397.588.515 0 .956-.147 1.323-.588.368-.367.589-.809.662-1.397zm5.588 1.985c0 1.398.073 3.677.073 6.839 0 3.235-.073 5.515-.147 6.912a16.02 16.02 0 0 1-.588 3.603 8.71 8.71 0 0 1-2.059 3.235c-.882.883-1.985 1.544-3.162 1.986-1.03.367-2.28.588-3.676.661-1.397.074-3.677.074-6.839.074-3.235 0-5.515 0-6.912-.074-1.397-.073-2.573-.294-3.603-.735a7.588 7.588 0 0 1-3.235-1.912c-.883-.882-1.544-1.985-1.986-3.235-.367-1.03-.588-2.206-.661-3.603C0 22.397 0 20.117 0 16.882c0-3.162 0-5.442.074-6.839.073-1.397.294-2.647.661-3.676.442-1.177 1.103-2.28 1.986-3.162a8.711 8.711 0 0 1 3.235-2.059A16.021 16.021 0 0 1 9.56.558C10.956.484 13.236.41 16.471.41c3.162 0 5.442.073 6.839.147 1.397.073 2.647.294 3.676.588a9.049 9.049 0 0 1 3.162 2.059 9.05 9.05 0 0 1 2.059 3.162c.294 1.03.515 2.28.662 3.676zm-3.53 16.545c.294-.809.441-2.132.588-3.97 0-1.03.074-2.574.074-4.56v-2.353c0-1.985-.074-3.53-.074-4.559-.147-1.838-.294-3.161-.588-3.97a5.575 5.575 0 0 0-3.162-3.162c-.808-.294-2.132-.441-3.97-.588-1.103 0-2.648-.074-4.56-.074h-2.352c-1.986 0-3.53.074-4.56.074-1.838.147-3.161.294-3.97.588-1.544.588-2.574 1.691-3.162 3.162-.294.809-.515 2.132-.588 3.97-.074 1.103-.074 2.648-.074 4.56v2.352c0 1.986 0 3.53.074 4.56.073 1.838.294 3.161.588 3.97.588 1.544 1.691 2.574 3.162 3.162.809.294 2.132.515 3.97.588 1.03.074 2.574.074 4.56.074h2.353c1.985 0 3.53 0 4.559-.074 1.838-.073 3.162-.294 3.97-.588a5.575 5.575 0 0 0 3.162-3.162z" fill="#fff"/></svg>