<svg width="25" height="14" fill="none" xmlns="http://www.w3.org/2000/svg"><path fill-rule="evenodd" clip-rule="evenodd" d="M12.33 13.87h1.414s.427-.047.645-.284c.2-.217.194-.625.194-.625s-.027-1.911.853-2.192c.868-.277 1.982 1.846 3.163 2.663.893.618 1.572.482 1.572.482l3.158-.044s1.652-.102.869-1.41c-.064-.108-.456-.969-2.348-2.738-1.98-1.851-1.715-1.552.67-4.755 1.453-1.95 2.034-3.14 1.852-3.65C24.2.83 23.131.958 23.131.958L19.575.98s-.264-.036-.46.082c-.19.115-.313.384-.313.384s-.563 1.51-1.314 2.793c-1.583 2.709-2.216 2.852-2.475 2.683-.602-.392-.452-1.574-.452-2.414 0-2.625.396-3.72-.77-4.003-.386-.094-.67-.156-1.659-.166-1.268-.013-2.342.004-2.95.304-.405.2-.717.644-.527.67.235.031.767.144 1.05.531.364.5.351 1.621.351 1.621s.21 3.09-.489 3.474c-.48.263-1.137-.274-2.548-2.732-.724-1.258-1.27-2.65-1.27-2.65s-.105-.26-.293-.399A1.467 1.467 0 0 0 4.91.937L1.53.96s-.507.015-.693.237c-.165.197-.013.606-.013.606s2.645 6.235 5.64 9.377c2.747 2.88 5.866 2.691 5.866 2.691z" fill="#252525"/></svg>