<svg width="25" height="25" fill="none" xmlns="http://www.w3.org/2000/svg"><path fill-rule="evenodd" clip-rule="evenodd" d="M7.492 0H17.2c3.945 0 7.154 3.21 7.154 7.154v9.707c0 3.945-3.209 7.154-7.154 7.154H7.492c-3.944 0-7.154-3.21-7.154-7.154V7.154C.338 3.21 3.548 0 7.492 0zM2.754 16.861a4.738 4.738 0 0 0 4.738 4.738H17.2a4.738 4.738 0 0 0 4.738-4.738V7.154A4.738 4.738 0 0 0 17.2 2.416H7.492a4.738 4.738 0 0 0-4.738 4.738v9.707zm9.923-9.745c2.88 0 5.223 2.355 5.223 5.249 0 2.894-2.343 5.25-5.223 5.25s-5.223-2.355-5.223-5.25 2.343-5.25 5.223-5.25zm0 8.457a3.2 3.2 0 0 0 3.192-3.208 3.2 3.2 0 0 0-3.192-3.208 3.2 3.2 0 0 0-3.191 3.208 3.2 3.2 0 0 0 3.191 3.208zM4.785 5.337a1.779 1.779 0 1 0 3.558 0 1.779 1.779 0 0 0-3.558 0z" fill="#252525"/></svg>