<svg width="183" height="44" fill="none" xmlns="http://www.w3.org/2000/svg"><path d="M20.646 12.651l.252-.432-.252.432zm157.799 27.36l-.377.328.377-.328zm2.365 2.176a.5.5 0 0 1-.533.465l-4.49-.31a.5.5 0 0 1 .069-.997l3.991.275.274-3.991a.5.5 0 0 1 .998.069l-.309 4.489zM89.584 18.093l-.18-.466.18.466zM2.327 1.39l3.316 1.933-.503.864-3.317-1.934.504-.863zm5.97 3.48l6.632 3.868-.504.864-6.632-3.868.503-.863zm9.285 5.416l3.316 1.933-.504.864-3.316-1.934.504-.863zm3.316 1.933a79.135 79.135 0 0 0 4.465 2.416l-.447.895a80.155 80.155 0 0 1-4.522-2.447l.504-.864zm8.143 4.14a79.06 79.06 0 0 0 9.539 3.463l-.28.96a80.061 80.061 0 0 1-9.66-3.507l.4-.916zm13.465 4.5c3.3.783 6.641 1.35 10.005 1.703l-.105.995a80.158 80.158 0 0 1-10.13-1.724l.23-.973zm14.053 2.023c3.377.18 6.767.143 10.148-.112l.075.997a80.15 80.15 0 0 1-10.276.114l.053-1zm14.189-.52a79.079 79.079 0 0 0 9.964-1.925l.252.968a80.054 80.054 0 0 1-10.09 1.948l-.126-.992zm13.866-3.05a79.19 79.19 0 0 0 4.79-1.685l.361.932a80.222 80.222 0 0 1-4.85 1.707l-.301-.954zm4.79-1.685a80.51 80.51 0 0 1 4.72-1.667l.304.953a79.613 79.613 0 0 0-4.663 1.646l-.362-.932zm8.565-2.786a79.91 79.91 0 0 1 9.814-1.946l.132.991a78.936 78.936 0 0 0-9.691 1.922l-.255-.967zm13.795-2.378c3.34-.277 6.68-.344 10.003-.203l-.042.999a79.022 79.022 0 0 0-9.878.2l-.083-.996zm13.998.065c3.328.308 6.63.823 9.886 1.54l-.215.977a79.286 79.286 0 0 0-9.763-1.52l.092-.997zm13.774 2.5a80.254 80.254 0 0 1 9.468 3.233l-.381.925a79.305 79.305 0 0 0-9.351-3.194l.264-.965zm13.13 4.853a80.078 80.078 0 0 1 8.761 4.832l-.537.843a78.983 78.983 0 0 0-8.652-4.771l.428-.904zm12.085 7.066a79.936 79.936 0 0 1 7.783 6.286l-.675.737a78.955 78.955 0 0 0-7.687-6.208l.579-.815zm10.666 9.064a80.46 80.46 0 0 1 3.405 3.671l-.754.657a79.562 79.562 0 0 0-3.363-3.626l.712-.702zm3.405 3.671l.666.765-.754.657-.666-.765.754-.657zm1.2 1.377l.666.765-.754.657-.666-.765.754-.657zM20.646 12.651l.504-.864-.504.864zm157.799 27.36l-.754.656.754-.657zm2.864 2.21a1 1 0 0 1-1.067.93l-8.978-.618a1 1 0 0 1 .137-1.996l7.981.55.549-7.982a1 1 0 1 1 1.995.138l-.617 8.978zM89.584 18.093l-.362-.932.362.932zM2.58.958l3.316 1.934-1.007 1.727-3.316-1.934L2.579.958zm5.97 3.48l6.632 3.868-1.008 1.728-6.632-3.868L8.548 4.44zm9.285 5.416l3.316 1.934-1.008 1.727-3.316-1.934 1.008-1.727zm3.316 1.934c1.458.85 2.938 1.65 4.437 2.4l-.895 1.789a80.701 80.701 0 0 1-4.55-2.462l1.008-1.728zM29.24 15.9a78.562 78.562 0 0 0 9.479 3.442l-.56 1.92a80.557 80.557 0 0 1-9.72-3.53l.801-1.832zm13.38 4.473a78.649 78.649 0 0 0 9.942 1.692l-.209 1.99a80.64 80.64 0 0 1-10.194-1.736l.462-1.946zm13.965 2.01c3.355.178 6.724.142 10.083-.112l.15 1.995c-3.445.26-6.899.297-10.34.114l.107-1.997zm14.098-.518a78.575 78.575 0 0 0 9.902-1.912l.504 1.936a80.562 80.562 0 0 1-10.153 1.96l-.253-1.984zm13.78-3.03a78.768 78.768 0 0 0 4.758-1.674l.724 1.864a80.646 80.646 0 0 1-4.88 1.717l-.603-1.907zm4.758-1.674a81.023 81.023 0 0 1 4.751-1.678l.607 1.906a79.056 79.056 0 0 0-4.634 1.636l-.724-1.864zm8.619-2.804a80.424 80.424 0 0 1 9.875-1.957l.266 1.982a78.427 78.427 0 0 0-9.63 1.91l-.511-1.935zm13.882-2.392a80.5 80.5 0 0 1 10.065-.205l-.084 1.998a78.504 78.504 0 0 0-9.815.2l-.166-1.993zm14.085.066c3.349.309 6.671.827 9.948 1.55l-.431 1.952a78.727 78.727 0 0 0-9.701-1.511l.184-1.992zm13.86 2.514a80.798 80.798 0 0 1 9.527 3.254l-.763 1.849a78.744 78.744 0 0 0-9.292-3.174l.528-1.929zm13.211 4.884a80.493 80.493 0 0 1 8.816 4.862l-1.074 1.687a78.537 78.537 0 0 0-8.596-4.74l.854-1.81zm12.161 7.11a80.358 80.358 0 0 1 7.832 6.325l-1.351 1.475a78.518 78.518 0 0 0-7.638-6.169l1.157-1.631zm10.733 9.12a81.3 81.3 0 0 1 3.426 3.695l-1.508 1.313a79.401 79.401 0 0 0-3.342-3.602l1.424-1.405zm3.426 3.695l.666.765-1.508 1.313-.666-.765 1.508-1.313zm1.2 1.377l.666.765-1.508 1.314-.666-.766 1.508-1.313z" fill="#FFB800"/></svg>