<svg width="184" height="43" fill="none" xmlns="http://www.w3.org/2000/svg"><path d="M163.09 12.075l-.251-.432.251.432zM5.292 39.435l.377.328-.377-.329zM2.926 41.61a.5.5 0 0 0 .534.464l4.489-.309a.5.5 0 1 0-.069-.997l-3.99.274-.275-3.99a.5.5 0 1 0-.997.068l.308 4.49zm91.226-24.094l.181-.466-.181.466zM181.409.813l-3.316 1.934.504.864 3.316-1.934-.504-.864zm-5.969 3.481l-6.632 3.868.503.864 6.633-3.868-.504-.864zm-9.285 5.415l-3.316 1.934.503.864 3.317-1.934-.504-.864zm-3.316 1.934a79.277 79.277 0 0 1-4.466 2.416l.447.895a80.151 80.151 0 0 0 4.522-2.447l-.503-.864zm-8.144 4.14a79.08 79.08 0 0 1-9.538 3.463l.28.96a79.992 79.992 0 0 0 9.659-3.508l-.401-.916zm-13.465 4.5a79.146 79.146 0 0 1-10.004 1.703l.104.995a80.155 80.155 0 0 0 10.131-1.724l-.231-.973zm-14.053 2.023c-3.377.18-6.766.142-10.147-.112l-.075.997c3.423.258 6.856.295 10.275.113l-.053-.998zm-14.188-.521a79.016 79.016 0 0 1-9.964-1.924l-.253.967a80.066 80.066 0 0 0 10.091 1.949l.126-.992zm-13.867-3.049a79.216 79.216 0 0 1-4.789-1.686l-.362.933a80.245 80.245 0 0 0 4.85 1.706l.301-.953zm-4.789-1.686a80.51 80.51 0 0 0-4.722-1.666l-.303.953a79.541 79.541 0 0 1 4.663 1.646l.362-.933zm-8.565-2.785a79.924 79.924 0 0 0-9.814-1.946l-.133.991a78.937 78.937 0 0 1 9.691 1.922l.256-.967zm-13.796-2.378a79.983 79.983 0 0 0-10.003-.204l.042 1a78.996 78.996 0 0 1 9.878.2l.083-.996zm-13.998.065c-3.328.308-6.63.823-9.886 1.54l.215.977a79.262 79.262 0 0 1 9.763-1.521l-.092-.996zm-13.773 2.5a80.253 80.253 0 0 0-9.469 3.233l.382.924a79.253 79.253 0 0 1 9.35-3.193l-.263-.965zm-13.13 4.853a80.018 80.018 0 0 0-8.761 4.832l.537.843a79.011 79.011 0 0 1 8.65-4.771l-.426-.904zM18.986 26.37a79.93 79.93 0 0 0-7.784 6.287l.676.737a78.933 78.933 0 0 1 7.686-6.208l-.578-.816zM8.32 35.435a80.564 80.564 0 0 0-3.405 3.67l.754.658a79.545 79.545 0 0 1 3.362-3.626l-.711-.702zm-3.405 3.67l-.667.766.754.657.667-.765-.754-.657zm-1.2 1.378l-.667.765.754.657.667-.765-.754-.657zM163.09 12.075l-.503-.864.503.864zM5.292 39.435l.754.656-.754-.657zm-2.864 2.21a1 1 0 0 0 1.066.93l8.979-.619a1 1 0 0 0-.138-1.995l-7.98.55-.55-7.982a1 1 0 1 0-1.995.137l.618 8.98zm91.724-24.128l.362-.933-.362.933zM181.157.38l-3.316 1.934 1.008 1.728 3.316-1.934-1.008-1.728zm-5.969 3.481l-6.632 3.868 1.007 1.728 6.633-3.868-1.008-1.728zm-9.285 5.415l-3.316 1.934 1.007 1.728 3.316-1.934-1.007-1.728zm-3.316 1.934a79.018 79.018 0 0 1-4.438 2.401l.895 1.789a80.696 80.696 0 0 0 4.55-2.462l-1.007-1.728zm-8.092 4.113a78.543 78.543 0 0 1-9.479 3.442l.561 1.92a80.62 80.62 0 0 0 9.72-3.53l-.802-1.832zm-13.38 4.473a78.665 78.665 0 0 1-9.941 1.692l.208 1.989a80.648 80.648 0 0 0 10.194-1.735l-.461-1.946zm-13.965 2.01a78.661 78.661 0 0 1-10.083-.112l-.15 1.995c3.445.26 6.899.296 10.34.114l-.107-1.998zm-14.098-.518a78.55 78.55 0 0 1-9.901-1.912l-.505 1.935a80.584 80.584 0 0 0 10.154 1.96l.252-1.983zm-13.779-3.03a78.746 78.746 0 0 1-4.759-1.675l-.724 1.865a80.692 80.692 0 0 0 4.88 1.717l.603-1.907zm-4.759-1.675a81.093 81.093 0 0 0-4.75-1.677l-.608 1.906a79.006 79.006 0 0 1 4.634 1.636l.724-1.865zm-8.618-2.803a80.424 80.424 0 0 0-9.876-1.958l-.265 1.983a78.436 78.436 0 0 1 9.63 1.909l.51-1.934zM72.013 11.39a80.504 80.504 0 0 0-10.065-.205l.084 1.998a78.495 78.495 0 0 1 9.816.2l.165-1.993zm-14.085.065c-3.348.31-6.67.828-9.947 1.55l.43 1.953a78.753 78.753 0 0 1 9.701-1.511l-.184-1.992zm-13.86 2.515a80.79 80.79 0 0 0-9.527 3.254l.764 1.849a78.747 78.747 0 0 1 9.291-3.174l-.527-1.93zm-13.211 4.884a80.513 80.513 0 0 0-8.816 4.862l1.074 1.687a78.499 78.499 0 0 1 8.597-4.741l-.855-1.808zm-12.16 7.11a80.422 80.422 0 0 0-7.833 6.325l1.352 1.475a78.43 78.43 0 0 1 7.637-6.169l-1.157-1.632zm-10.733 9.12a80.998 80.998 0 0 0-3.426 3.695l1.508 1.313a79.006 79.006 0 0 1 3.341-3.603l-1.423-1.405zm-3.426 3.695l-.667.764 1.508 1.314.667-.765-1.508-1.313zm-1.2 1.377l-.667.765 1.508 1.313.667-.765-1.508-1.314z" fill="#FFB800"/></svg>