<svg width="40" height="24" fill="none" xmlns="http://www.w3.org/2000/svg"><path d="M39.075 1.735c-.147.735-.736 1.985-1.765 3.676-.735 1.25-1.618 2.647-2.647 4.265-.882 1.323-1.397 1.985-1.397 1.985-.294.441-.441.81-.441 1.03 0 .294.147.588.44.882l.663.735c3.53 3.677 5.515 6.177 5.956 7.5.147.589.073 1.104-.22 1.398-.295.294-.663.441-1.251.441h-4.338c-.589 0-1.03-.147-1.471-.515-.294-.147-.882-.662-1.618-1.544a33.395 33.395 0 0 0-1.985-2.206c-1.985-1.838-3.456-2.794-4.338-2.794-.442 0-.736.073-.883.22-.147.148-.22.515-.22.956-.074.368-.074 1.103-.074 2.28v1.912c0 .588-.147 1.03-.441 1.25-.441.294-1.324.441-2.647.441-2.353 0-4.633-.662-6.986-2.059C11.06 20.265 9 18.28 7.236 15.705 5.544 13.5 4.147 11.22 3.044 8.867 2.162 7.102 1.427 5.485.912 3.94.544 2.764.397 1.882.397 1.367c0-.809.441-1.25 1.47-1.25h4.34c.514 0 .881.147 1.176.367.294.295.514.736.735 1.324.662 1.985 1.47 3.897 2.5 5.736.882 1.764 1.765 3.161 2.647 4.19.883 1.104 1.544 1.618 2.06 1.618.293 0 .44-.073.587-.294.147-.22.22-.661.22-1.323V5.338c-.073-.736-.22-1.471-.514-2.06-.147-.293-.441-.661-.735-1.102-.368-.441-.515-.736-.515-1.03 0-.294.074-.514.294-.735.22-.147.515-.294.81-.294h6.838c.44 0 .735.147.882.367.147.295.294.662.294 1.25v8.53c0 .441.074.809.22.956.148.22.295.294.515.294.221 0 .515-.073.81-.22.293-.147.661-.515 1.176-1.103A30.493 30.493 0 0 0 29 6.367c.588-1.03 1.25-2.206 1.838-3.53l.736-1.47c.294-.809.956-1.25 1.838-1.25h4.338c1.177 0 1.618.588 1.324 1.618z" fill="#fff"/></svg>