<svg width="19" height="19" viewBox="0 0 19 19" fill="none" xmlns="http://www.w3.org/2000/svg">
<path d="M15.9443 2.59307L15.9127 2.55503L15.8742 2.52392C15.7404 2.41582 15.5651 2.32425 15.4437 2.26086C15.437 2.25737 15.4305 2.25398 15.4242 2.25067L15.3432 2.20828L15.2524 2.19729L12.4202 1.85457L12.3635 1.84771L12.3068 1.8538C12.2983 1.85471 12.2893 1.85563 12.28 1.85659C12.1322 1.87175 11.8808 1.89753 11.6503 2.07643C11.4404 2.21599 11.2641 2.3987 11.1953 2.68192L10.2484 5.77216C10.1431 6.06559 10.1599 6.32606 10.2709 6.56929C10.3625 6.77015 10.5236 6.97206 10.758 7.10331L12.1209 8.01895C11.7543 8.91453 11.2849 9.74613 10.6839 10.4931C10.079 11.2449 9.40177 11.8729 8.6238 12.3845L7.41784 11.2207L7.36613 11.1708L7.30247 11.1375C7.29609 11.1342 7.28948 11.1307 7.28266 11.1271C7.16079 11.0632 6.97146 10.9638 6.77206 10.9201C6.53405 10.868 6.29593 10.8935 6.07438 10.9949L6.05544 11.0036L6.03729 11.0138L3.19801 12.6112L3.18519 12.6184L3.17282 12.6263C2.93312 12.7804 2.79994 12.9426 2.69156 13.1507L2.67719 13.1782L2.66636 13.2074C2.55863 13.4971 2.56951 13.7546 2.67232 13.995L3.60044 16.6768L3.60036 16.6769L3.60348 16.6854C3.69531 16.9359 3.85642 17.1511 4.09658 17.29C4.32184 17.4509 4.58639 17.4783 4.81887 17.4533C7.11488 17.2071 9.22392 16.3985 11.0877 14.9884C12.9193 13.6673 14.2566 11.9506 15.1927 9.88758C16.1332 7.81504 16.5202 5.57391 16.2683 3.22474C16.2498 3.05239 16.1778 2.91493 16.1185 2.82235C16.0626 2.73511 15.9958 2.65491 15.9507 2.60079L15.9443 2.59307Z" stroke="#EF3B39"/>
</svg>
