<svg width="80" height="70" fill="none" xmlns="http://www.w3.org/2000/svg"><path d="M.019 36H9v2.618H3.263V40.6H8.98V48H0v-2.618h5.775v-2.146H.487c-.168 0-.318-.018-.487-.036.019-2.4.019-4.8.019-7.2zM36.893 17.929A36040.44 36040.44 0 0 0 15.841 3.353L16.008 33H1v-.018c4.203-.495 8.425-1.009 12.665-1.522v-.44c-.074-9.7-.13-19.38-.205-29.079 0-.311 0-.641.038-.953.13-.807.948-1.21 1.692-.843.26.128.502.311.744.476 6.862 4.749 13.706 9.497 20.55 14.246.26.183.428.183.707 0C44.053 10.063 50.916 5.26 57.779.475c.223-.147.446-.312.706-.404a1.14 1.14 0 0 1 1.32.404c.28.421.261.971-.074 1.356-.167.184-.372.33-.558.477-7.401 5.207-14.822 10.396-22.28 15.621zM79 52.072l-5.617.596c-1.903.198-3.806.415-5.71.631-.784.09-1.549.163-2.332.235-.336.036-.56.126-.728.47-1.549 3.356-3.956 6.063-6.904 8.319-3.844 2.942-8.192 4.909-12.839 6.352-1.586.488-3.228.867-4.851 1.282-.187.054-.41.054-.579.018-5.374-1.155-10.468-2.978-15.133-5.847-3.173-1.95-5.934-4.332-7.987-7.418-.616-.92-1.1-1.913-1.623-2.87-.112-.216-.243-.324-.486-.36-1.436-.144-2.854-.307-4.291-.451-1.698-.18-3.415-.361-5.113-.56-1.27-.144-2.538-.27-3.807-.451h15.077c.28 0 .392.072.504.343 1.437 3.52 3.882 6.262 6.96 8.518 3.789 2.78 8.062 4.62 12.596 5.938 1.064.306 2.146.56 3.229.83.186.054.41.054.578.018 5.001-1.137 9.76-2.852 14.088-5.577 3.06-1.93 5.71-4.259 7.558-7.345.466-.758.84-1.588 1.194-2.4.13-.27.261-.343.541-.343h15.637c.02.036.02.054.038.072z" fill="#fff"/><path d="M65.882 31.387c4.421.532 8.77 1.063 13.118 1.576V33H63.56l.166-29.622c-.148.092-.258.165-.369.238-4.237 2.97-8.475 5.921-12.713 8.89-2.487 1.742-4.956 3.483-7.425 5.225-.166.11-.405.183-.608.183-1.16.018-2.321 0-3.611 0 .184-.128.276-.22.368-.293 2.875-2.035 5.749-4.088 8.642-6.104C53.353 7.777 58.678 4.075 64.002.354c.424-.294.866-.477 1.382-.257.553.257.719.752.719 1.302 0 .898-.037 1.814-.037 2.712L65.9 30.947c-.018.147-.018.275-.018.44z" fill="#EF3B39"/><path d="M52.525 44.2h-1.582c.686 1.273 1.354 2.51 2.057 3.8H49.889c-.211 0-.317-.073-.405-.255-.474-.981-.966-1.927-1.406-2.909-.14-.327-.316-.472-.65-.418-.123.018-.246 0-.422 0v3.546H44V36h8.525v8.2zm-3.023-2.636v-2.71h-2.496v2.71h2.496zM36.155 44.936h2.672V36H42v12h-9V36.018h3.155v8.918zM26.833 40.329v-1.26h-2.648v5.862h2.63v-1.26h3.166V48H21V36h9v4.329h-3.167zM11 48V36h8v2.813h-4.982v1.753h2.438v2.85h-2.438v1.753h4.965V48H11z" fill="#fff"/><path d="M43 33h-8V23h8v10zm-2.809-7.438h-2.344v4.894h2.344v-4.894zM52.98 30.115h-5.158V33H45V23h8c-.02 2.354-.02 4.708-.02 7.115zm-2.86-2.407v-2.16h-2.298v2.16h2.297z" fill="#EF3B39"/><path d="M75 40.352c.61-1.384 1.185-2.713 1.76-4.06.087-.201.191-.292.4-.292.924.018 1.847 0 2.84 0-.505 1.038-.976 2.021-1.463 3.023a287.092 287.092 0 0 0-1.952 4.06c-.07.128-.087.31-.087.456V48h-2.996v-.4-3.934c0-.237-.07-.51-.174-.728-1.028-2.167-2.091-4.316-3.136-6.483-.07-.127-.122-.255-.192-.419.105-.018.192-.036.279-.036.819 0 1.655.018 2.474 0 .26 0 .383.091.487.346a233.196 233.196 0 0 0 1.603 3.697c.035.09.087.182.157.31zM66.124 48h-3.192v-8.959H60V36h9v3.023h-2.895c.019 3.022.019 5.99.019 8.977z" fill="#fff"/><path d="M31.41 33h-2.82v-7.474H26V23h8v2.509h-2.57c-.02 2.526-.02 5-.02 7.491z" fill="#EF3B39"/><path d="M55 36h4v12h-4V36z" fill="#fff"/><path d="M38.946 52.014c-.2.348-.382.638-.564.942-.2.334-.546.653-.546.986 0 .333.346.667.528 1 .2.333.4.681.636 1.058-.473 0-.927 0-1.364-.014-.054 0-.127-.102-.163-.16l-.6-1.087c-.146-.26-.146-.26-.582-.246v1.478H35v-3.956h1.255v1.405c.327.102.509.044.618-.203.163-.347.345-.695.563-1.029.055-.087.218-.174.328-.188.363 0 .745.014 1.181.014z" fill="#EF3B39"/><path d="M39.007 52H43v.938c0 .073-.08.132-.141.19-.585.513-1.19 1.011-1.775 1.51-.1.087-.222.19-.383.351H43V56h-3.993c.04-.498-.182-.982.443-1.421.646-.455 1.19-.997 1.836-1.539h-2.239c-.04-.366-.04-.688-.04-1.04z" fill="#EF3B39"/></svg>