<svg width="298" height="261" viewBox="0 0 298 261" fill="none" xmlns="http://www.w3.org/2000/svg">
<path d="M0.068749 133C11 133 21.9312 133 33 133C33 136.345 33 139.621 33 143.036C25.9875 143.036 19.0438 143.036 11.9625 143.036C11.9625 145.615 11.9625 148.055 11.9625 150.633C18.975 150.633 25.9188 150.633 32.9313 150.633C32.9313 160.112 32.9313 169.452 32.9313 179C21.9313 179 11 179 0 179C0 175.655 0 172.309 0 168.964C7.0125 168.964 14.0937 168.964 21.175 168.964C21.175 166.176 21.175 163.527 21.175 160.739C20.5562 160.739 20.075 160.739 19.525 160.739C13.6125 160.739 7.7 160.739 1.7875 160.739C1.16875 160.739 0.61875 160.67 0 160.6C0.06875 151.4 0.068749 142.2 0.068749 133Z" fill="white"/>
<path d="M136.84 66.2831C110.696 48.3209 84.6216 30.4264 58.339 12.3964C58.5471 49.0665 58.7551 85.4654 58.9631 122C40.1701 122 21.585 122 3 122V121.932C18.6725 120.102 34.4143 118.204 50.2254 116.306C50.2254 115.696 50.2254 115.154 50.2254 114.68C49.948 78.8228 49.74 43.0339 49.4626 7.17714C49.4626 6.02484 49.4626 4.80476 49.6013 3.65247C50.0867 0.670056 53.138 -0.82115 55.9119 0.534491C56.8827 1.00897 57.7842 1.68679 58.6857 2.29683C84.2748 19.8524 109.795 37.408 135.314 54.9635C136.285 55.6413 136.909 55.6413 137.95 54.9635C163.539 37.2046 189.128 19.4457 214.717 1.75457C215.549 1.21231 216.381 0.602274 217.352 0.263363C219.224 -0.414458 221.166 0.263362 222.276 1.75457C223.316 3.31356 223.246 5.34702 221.998 6.77044C221.374 7.44826 220.611 7.99052 219.918 8.53278C192.318 27.7829 164.648 46.9652 136.84 66.2831Z" fill="white"/>
<path d="M295 193.273C288.014 194.023 280.959 194.773 273.973 195.523C266.848 196.273 259.722 197.091 252.597 197.909C249.663 198.25 246.799 198.522 243.865 198.795C242.608 198.931 241.769 199.272 241.141 200.568C235.343 213.249 226.331 223.475 215.294 231.998C200.903 243.111 184.627 250.542 167.233 255.996C161.295 257.837 155.147 259.269 149.07 260.837C148.371 261.041 147.533 261.041 146.904 260.905C126.786 256.542 107.715 249.656 90.2507 238.815C78.3751 231.452 68.0364 222.453 60.3522 210.794C58.0469 207.317 56.2306 203.568 54.2746 199.954C53.8555 199.136 53.3665 198.727 52.4584 198.591C47.0794 198.045 41.7703 197.432 36.3914 196.886C30.0345 196.204 23.6077 195.523 17.2507 194.773C12.5005 194.227 7.75024 193.75 3 193.068C3.489 193.068 3.90813 193.068 4.39713 193.068C22.7694 193.068 41.0718 193.068 59.444 193.068C60.4919 193.068 60.911 193.341 61.3301 194.364C66.7091 207.658 75.8603 218.021 87.3866 226.543C101.567 237.043 117.565 243.997 134.54 248.974C138.522 250.133 142.573 251.087 146.625 252.11C147.323 252.315 148.162 252.315 148.79 252.178C167.512 247.883 185.325 241.406 201.532 231.111C212.989 223.816 222.908 215.021 229.824 203.363C231.57 200.5 232.967 197.363 234.295 194.295C234.784 193.273 235.273 193 236.321 193C254.833 193 273.275 193 291.787 193C292.834 193 293.812 193 294.86 193C294.93 193.136 294.93 193.205 295 193.273Z" fill="white"/>
<path d="M245.806 116.037C262.388 118.002 278.694 119.967 295 121.864C295 121.932 295 121.932 295 122C275.792 122 256.515 122 237.1 122C237.308 85.5415 237.515 49.083 237.722 12.489C237.17 12.8279 236.755 13.0989 236.34 13.37C220.449 24.3482 204.558 35.2586 188.667 46.2368C179.339 52.6747 170.081 59.1125 160.822 65.5503C160.2 65.9569 159.302 66.228 158.542 66.228C154.189 66.2958 149.836 66.228 145 66.228C145.691 65.7536 146.036 65.4148 146.382 65.1438C157.16 57.6216 167.939 50.0318 178.786 42.5774C198.823 28.753 218.791 15.0642 238.759 1.30753C240.348 0.223258 242.006 -0.454408 243.941 0.358792C246.013 1.30753 246.635 3.13723 246.635 5.17023C246.635 8.4908 246.497 11.8791 246.497 15.1997C246.29 48.2698 246.082 81.34 245.875 114.41C245.806 114.952 245.806 115.427 245.806 116.037Z" fill="#EF3B39"/>
<path d="M196.207 164.433C194.215 164.433 192.422 164.433 190.23 164.433C192.82 169.312 195.344 174.052 198 179C197.336 179 196.938 179 196.473 179C193.086 179 189.633 179 186.246 179C185.449 179 185.051 178.721 184.719 178.024C182.926 174.261 181.066 170.636 179.406 166.873C178.875 165.618 178.211 165.061 176.949 165.27C176.484 165.339 176.02 165.27 175.355 165.27C175.355 169.87 175.355 174.33 175.355 178.861C171.504 178.861 167.852 178.861 164 178.861C164 163.597 164 148.403 164 133C174.691 133 185.449 133 196.207 133C196.207 143.524 196.207 153.909 196.207 164.433ZM184.785 154.327C184.785 150.773 184.785 147.358 184.785 143.942C181.598 143.942 178.477 143.942 175.355 143.942C175.355 147.497 175.355 150.912 175.355 154.327C178.543 154.327 181.598 154.327 184.785 154.327Z" fill="white"/>
<path d="M133.918 167.255C137.353 167.255 140.647 167.255 144.012 167.255C144.012 155.86 144.012 144.465 144.012 133C148.078 133 152.004 133 156 133C156 148.31 156 163.62 156 179C144.713 179 133.427 179 122 179C122 163.76 122 148.45 122 133.07C125.926 133.07 129.852 133.07 133.918 133.07C133.918 144.395 133.918 155.79 133.918 167.255Z" fill="white"/>
<path d="M99.7407 149.594C99.7407 147.913 99.7407 146.373 99.7407 144.763C96.5802 144.763 93.4856 144.763 90.3251 144.763C90.3251 152.184 90.3251 159.676 90.3251 167.237C93.4198 167.237 96.5144 167.237 99.6749 167.237C99.6749 165.627 99.6749 164.087 99.6749 162.406C103.494 162.406 107.181 162.406 110.934 162.406C110.934 167.868 110.934 173.399 110.934 179C100.333 179 89.7325 179 79 179C79 163.737 79 148.403 79 133C89.6667 133 100.267 133 111 133C111 138.531 111 144.062 111 149.594C107.247 149.594 103.56 149.594 99.7407 149.594Z" fill="white"/>
<path d="M40 179C40 163.667 40 148.403 40 133C50 133 59.9342 133 70 133C70 136.501 70 140.072 70 143.782C63.8158 143.782 57.6316 143.782 51.3158 143.782C51.3158 146.093 51.3158 148.193 51.3158 150.504C54.3421 150.504 57.3684 150.504 60.4605 150.504C60.4605 154.215 60.4605 157.715 60.4605 161.426C57.4342 161.426 54.4079 161.426 51.3158 161.426C51.3158 163.737 51.3158 165.837 51.3158 168.148C57.5 168.148 63.6842 168.148 69.9342 168.148C69.9342 171.858 69.9342 175.359 69.9342 179C60.0658 179 50.0658 179 40 179Z" fill="white"/>
<path d="M159 122C149.31 122 139.69 122 130 122C130 109.645 130 97.4205 130 85C139.69 85 149.31 85 159 85C159 97.3551 159 109.645 159 122ZM148.818 94.4788C145.869 94.4788 143.131 94.4788 140.322 94.4788C140.322 100.558 140.322 106.572 140.322 112.587C143.201 112.587 146.01 112.587 148.818 112.587C148.818 106.507 148.818 100.558 148.818 94.4788Z" fill="#EF3B39"/>
<path d="M197.925 111.326C191.212 111.326 184.65 111.326 177.937 111.326C177.937 114.927 177.937 118.398 177.937 122C174.241 122 170.696 122 167 122C167 109.688 167 97.377 167 85C177.333 85 187.591 85 198 85C197.925 93.7097 197.925 102.419 197.925 111.326ZM186.837 102.419C186.837 99.7345 186.837 97.0496 186.837 94.4301C183.82 94.4301 180.954 94.4301 177.937 94.4301C177.937 97.115 177.937 99.7345 177.937 102.419C180.954 102.419 183.895 102.419 186.837 102.419Z" fill="#EF3B39"/>
<path d="M279.5 149.683C281.756 144.378 283.883 139.282 286.01 134.117C286.333 133.349 286.72 133 287.493 133C290.909 133.07 294.326 133 298 133C296.131 136.979 294.39 140.748 292.585 144.587C290.136 149.753 287.751 154.918 285.366 160.153C285.108 160.642 285.044 161.34 285.044 161.898C285.044 167.064 285.044 172.229 285.044 177.395C285.044 177.883 285.044 178.372 285.044 179C281.369 179 277.695 179 273.956 179C273.956 178.442 273.956 177.953 273.956 177.464C273.956 172.439 273.956 167.413 273.956 162.387C273.956 161.48 273.699 160.432 273.312 159.595C269.509 151.288 265.577 143.052 261.709 134.745C261.451 134.256 261.258 133.768 261 133.14C261.387 133.07 261.709 133 262.031 133C265.061 133 268.155 133.07 271.185 133C272.152 133 272.603 133.349 272.99 134.326C274.923 139.073 276.922 143.819 278.92 148.496C279.049 148.845 279.242 149.194 279.5 149.683Z" fill="white"/>
<path d="M246.814 179C242.557 179 238.588 179 234.402 179C234.402 167.622 234.402 156.244 234.402 144.657C230.505 144.657 226.825 144.657 223 144.657C223 140.678 223 136.909 223 133C234.691 133 246.309 133 258 133C258 136.839 258 140.678 258 144.587C254.247 144.587 250.567 144.587 246.742 144.587C246.814 156.175 246.814 167.552 246.814 179Z" fill="white"/>
<path d="M117.288 122C113.691 122 110.237 122 106.712 122C106.712 112.783 106.712 103.631 106.712 94.3481C103.403 94.3481 100.237 94.3481 97 94.3481C97 91.2102 97 88.1378 97 85C106.928 85 116.928 85 127 85C127 88.0071 127 91.0795 127 94.2827C123.835 94.2827 120.669 94.2827 117.36 94.2827C117.288 103.631 117.288 112.783 117.288 122Z" fill="#EF3B39"/>
<path d="M205 133C209.722 133 214.361 133 219 133C219 148.38 219 163.62 219 179C214.278 179 209.722 179 205 179C205 163.69 205 148.38 205 133Z" fill="white"/>
<path d="M144.795 193.062C144.045 194.54 143.364 195.772 142.682 197.065C141.932 198.482 140.636 199.837 140.636 201.254C140.636 202.67 141.932 204.087 142.614 205.504C143.364 206.92 144.114 208.399 145 210C143.227 210 141.523 210 139.886 209.938C139.682 209.938 139.409 209.507 139.273 209.261C138.523 207.721 137.773 206.181 137.023 204.641C136.477 203.533 136.477 203.533 134.841 203.594C134.841 205.627 134.841 207.721 134.841 209.877C133.136 209.877 131.636 209.877 130 209.877C130 204.333 130 198.728 130 193.062C131.568 193.062 133.068 193.062 134.705 193.062C134.705 195.094 134.705 197.065 134.705 199.036C135.932 199.467 136.614 199.221 137.023 198.174C137.636 196.696 138.318 195.217 139.136 193.801C139.341 193.431 139.955 193.062 140.364 193C141.727 193 143.159 193.062 144.795 193.062Z" fill="#EF3B39"/>
<path d="M145.024 193C149.682 193 154.271 193 159 193C159 194.37 159 195.678 159 196.985C159 197.297 158.718 197.546 158.506 197.795C156.459 199.974 154.341 202.092 152.294 204.209C151.941 204.582 151.518 205.018 150.953 205.703C153.847 205.703 156.388 205.703 159 205.703C159 207.198 159 208.568 159 210C154.341 210 149.753 210 145.024 210C145.165 207.883 144.388 205.828 146.577 203.96C148.835 202.029 150.741 199.725 153 197.421C150.247 197.421 147.777 197.421 145.165 197.421C145.024 195.864 145.024 194.495 145.024 193Z" fill="#EF3B39"/>
</svg>
