<svg width="155" height="154" fill="none" xmlns="http://www.w3.org/2000/svg">
  <path d="M.035 80H17v5.673H6.162v4.294h10.803V106H0v-5.673h10.908v-4.648H.921c-.319 0-.602-.04-.921-.079.035-5.2.035-10.4.035-15.6zM70.962 39.661A70579.94 70579.94 0 0 0 29.927 7.417L30.253 73H1v-.04c8.192-1.096 16.421-2.231 24.686-3.367v-.973c-.145-21.456-.254-42.87-.399-64.325 0-.69 0-1.42.073-2.11C25.613.401 27.209-.49 28.659.32c.507.284.978.69 1.45 1.054a38642.655 38642.655 0 0 1 40.055 31.514c.508.406.834.406 1.378 0C84.918 22.262 98.294 11.636 111.67 1.05c.435-.325.87-.69 1.378-.892.978-.406 1.993 0 2.573.892.544.933.508 2.15-.145 3.001-.326.406-.725.73-1.087 1.055C99.962 16.624 85.498 28.102 70.962 39.66z" fill="#252525"/><path d="M153 114.16c-3.612.442-7.261.883-10.873 1.324-3.685.441-7.37.922-11.055 1.404-1.517.2-2.998.36-4.515.521-.65.08-1.084.281-1.409 1.043-2.998 7.459-7.658 13.475-13.366 18.488-7.442 6.537-15.859 10.908-24.853 14.117-3.071 1.082-6.25 1.925-9.393 2.847-.361.12-.795.12-1.12.04-10.404-2.567-20.265-6.617-29.297-12.994-6.14-4.331-11.487-9.625-15.46-16.483-1.193-2.045-2.132-4.251-3.144-6.376-.216-.482-.47-.722-.939-.802-2.782-.321-5.527-.682-8.309-1.003-3.287-.401-6.61-.802-9.898-1.243-2.456-.321-4.913-.602-7.369-1.003H31.188c.542 0 .76.161.976.762 2.782 7.82 7.514 13.916 13.474 18.929 7.334 6.177 15.606 10.267 24.384 13.195 2.06.682 4.155 1.243 6.25 1.845.361.12.794.12 1.12.04 9.681-2.527 18.893-6.337 27.274-12.393 5.924-4.291 11.054-9.464 14.63-16.322.903-1.684 1.626-3.529 2.312-5.334.253-.602.506-.762 1.048-.762h30.272c.036.08.036.12.072.16zM129.091 69.432c8.734 1.176 17.321 2.352 25.909 3.487V73h-30.494l.328-65.527c-.291.203-.51.365-.728.527-8.369 6.569-16.739 13.097-25.108 19.666a5157.667 5157.667 0 0 0-14.665 11.557c-.328.243-.8.405-1.2.405-2.293.04-4.586 0-7.133 0 .364-.284.546-.486.728-.648 5.676-4.502 11.353-9.043 17.066-13.503C104.347 17.205 114.863 9.014 125.38.782c.836-.648 1.71-1.054 2.729-.567 1.091.567 1.419 1.662 1.419 2.879 0 1.987-.073 4.014-.073 6l-.327 59.364c-.037.325-.037.609-.037.974z" fill="#EF3B39"/><path d="M102.945 97.767H99.43c1.523 2.757 3.008 5.436 4.57 8.233h-6.914c-.469 0-.703-.158-.898-.552-1.055-2.127-2.149-4.175-3.126-6.302-.312-.71-.703-1.025-1.445-.907-.273.04-.547 0-.937 0v7.682H84V80h18.945v17.767zm-6.718-5.712v-5.87H90.68v5.87h5.547zM69.31 99.362h5.344V80H81v26H63V80.04h6.31v19.322zM53.019 89.379v-2.73h-5.002v12.703h4.966V96.62h5.982V106H42V80h17v9.379h-5.981zM22 106V80h16v6.094h-9.965v3.8h4.877v6.173h-4.877v3.8h9.93V106H22z" fill="#252525"/><path d="M83 73H68V50h15v23zm-5.266-17.108h-4.395v11.256h4.395V55.892zM101.964 66.365h-9.672V73H87V50h15c-.036 5.414-.036 10.828-.036 16.365zm-5.365-5.537v-4.966h-4.307v4.966h4.306z" fill="#EF3B39"/><path d="M144.5 89.43a825.802 825.802 0 0 0 3.695-8.799c.183-.434.403-.631.842-.631 1.939.04 3.878 0 5.963 0-1.061 2.249-2.049 4.38-3.073 6.55-1.39 2.919-2.744 5.838-4.098 8.797-.146.277-.183.671-.183.987V106h-6.292v-.868-8.522c0-.513-.147-1.105-.366-1.578-2.159-4.695-4.39-9.35-6.586-14.046-.146-.276-.256-.552-.402-.907.22-.04.402-.079.585-.079 1.72 0 3.476.04 5.195 0 .549 0 .805.197 1.025.75a509.144 509.144 0 0 0 3.366 8.009c.073.197.183.394.329.67z" fill="#252525"/><path d="M128.247 106h-6.383V86.589H116V80h18v6.55h-5.79c.037 6.549.037 12.98.037 19.45z" fill="#252525"/><path d="M60.82 73h-5.64V55.811H50V50h16v5.77h-5.142c-.038 5.811-.038 11.5-.038 17.23z" fill="#EF3B39"/><path d="M107 80h6v26h-6V80z" fill="#252525"/><path d="M76.877 114.04c-.45.956-.859 1.753-1.268 2.59-.45.917-1.227 1.794-1.227 2.711 0 .916.777 1.833 1.186 2.75.45.916.9 1.873 1.432 2.909-1.064 0-2.086 0-3.068-.04-.123 0-.287-.279-.368-.438l-1.35-2.989c-.328-.718-.328-.718-1.31-.678v4.065H68v-10.88h2.823v3.866c.736.279 1.145.119 1.39-.558.369-.957.778-1.913 1.269-2.83.123-.239.49-.478.736-.518.818 0 1.677.04 2.66.04z" fill="#EF3B39"/><path d="M77.012 114H84v2.579c0 .201-.141.362-.247.524-1.024 1.41-2.082 2.78-3.106 4.15-.176.242-.388.524-.67.967H84V125h-6.988c.07-1.37-.318-2.7.776-3.908 1.13-1.25 2.083-2.74 3.212-4.231h-3.918c-.07-1.008-.07-1.894-.07-2.861z" fill="#EF3B39"/></svg>