<svg width="341" height="278" viewBox="0 0 341 278" fill="none" xmlns="http://www.w3.org/2000/svg">
<path d="M341 115.153L16.4229 114.284L1.47426e-05 96.6058L15.7031 78.4732L243.473 79.1804L341 27.8287V115.153Z" fill="#C30200"/>
<path d="M341 196.72L243.258 147.78H69.3852L54 130.976L69.3852 113.323L243.258 113.234L341 114.207V196.72Z" fill="#FF4C00"/>
<path d="M341 277.327L243.439 184.344L36.537 184.193L19 166.337L37.0937 147.955L243.439 147.78L340.97 196.896L341 277.327Z" fill="#EF3B39"/>
<path d="M341 28.5099L243.306 79.6477L82.4587 78.6932L63 56.6717L82.0265 35.8403H243.306L284.903 -2.2323e-06H340.861L341 28.5099Z" fill="#720000"/>
</svg>
