<svg width="160" height="160" fill="none" xmlns="http://www.w3.org/2000/svg"><mask id="a" fill="#fff"><path fill-rule="evenodd" clip-rule="evenodd" d="M80.5 122c23.472 0 42.5-19.028 42.5-42.5S103.972 37 80.5 37 38 56.028 38 79.5 57.028 122 80.5 122zM73 92.124L94 80 73 67.876v24.248z"/></mask><path fill-rule="evenodd" clip-rule="evenodd" d="M80.5 122c23.472 0 42.5-19.028 42.5-42.5S103.972 37 80.5 37 38 56.028 38 79.5 57.028 122 80.5 122zM73 92.124L94 80 73 67.876v24.248z" fill="#fff"/><path d="M94 80l.5.866L96 80l-1.5-.866L94 80zM73 92.124h-1v1.732l1.5-.866-.5-.866zm0-24.248l.5-.866-1.5-.866v1.732h1zM122 79.5c0 22.92-18.58 41.5-41.5 41.5v2c24.024 0 43.5-19.476 43.5-43.5h-2zM80.5 38c22.92 0 41.5 18.58 41.5 41.5h2C124 55.476 104.524 36 80.5 36v2zM39 79.5C39 56.58 57.58 38 80.5 38v-2C56.476 36 37 55.476 37 79.5h2zM80.5 121C57.58 121 39 102.42 39 79.5h-2c0 24.024 19.476 43.5 43.5 43.5v-2zm13-41.866l-21 12.124 1 1.732 21-12.124-1-1.732zm-21-10.392l21 12.124 1-1.732-21-12.124-1 1.732zM74 92.124V67.876h-2v24.248h2z" fill="#fff" mask="url(#a)"/></svg>